<svg xmlns="http://www.w3.org/2000/svg" width="107" height="35" fill="none" viewBox="0 0 107 35"><path fill="#1ba3b6" d="M102.249 17.352h3.243a.52.52 0 0 0 .395-.16.52.52 0 0 0 .159-.366.5.5 0 0 0-.159-.367.52.52 0 0 0-.395-.16h-3.243c-.137 0-.271-.023-.35-.05a1.6 1.6 0 0 1-.303-.233 1.6 1.6 0 0 1-.22-.28 1 1 0 0 1-.065-.374c0-.128.02-.24.053-.35.073-.122.143-.212.232-.304q.133-.132.278-.22c.105-.043.238-.066.376-.066h3.243a.52.52 0 0 0 .395-.159l.046-.061a.5.5 0 0 0 .113-.306.52.52 0 0 0-.159-.368.52.52 0 0 0-.395-.16h-3.243c-.286 0-.512.057-.789.151a2.4 2.4 0 0 0-.625.428q-.269.27-.428.624c-.101.204-.15.461-.15.79 0 .376.068.678.209.932q.19.315.429.54a3.4 3.4 0 0 0-.436.537 2 2 0 0 0-.203.92c0 .267.061.51.175.711q.076.151.153.269a.3.3 0 0 0-.145.117.47.47 0 0 0-.158.366c0 .063 0 .245.158.37a.45.45 0 0 0 .37.158h4.682a.51.51 0 0 0 .393-.16.5.5 0 0 0 .161-.368c0-.145-.064-.236-.11-.303l-.049-.065a.52.52 0 0 0-.394-.158h-3.279a1 1 0 0 1-.643-.286.88.88 0 0 1-.259-.652q.001-.364.259-.654c.166-.165.4-.262.679-.285zm-1.08 8.376c.239.265.535.469.903.623.355.149.723.223 1.119.223s.768-.077 1.124-.226c.353-.162.636-.357.89-.612.291-.29.456-.577.617-.924.133-.319.198-.676.198-1.092 0-.46-.069-.806-.226-1.121a2.7 2.7 0 0 0-.615-.92c-.229-.228-.511-.422-.903-.618a2.9 2.9 0 0 0-1.113-.195c-.428 0-.775.065-1.103.203-.356.178-.68.404-.913.637-.224.224-.423.514-.612.89a2.5 2.5 0 0 0-.227 1.099c0 .421.079.777.249 1.144.132.316.346.626.61.89zm.335-2.718q.13-.295.415-.581c.115-.133.293-.25.562-.37a1.7 1.7 0 0 1 .71-.14 1.82 1.82 0 0 1 1.254.52c.19.189.312.37.38.572q.14.316.14.708a1.7 1.7 0 0 1-.146.699 1.3 1.3 0 0 1-.374.556 1.9 1.9 0 0 1-.571.406 1.8 1.8 0 0 1-1.393 0 1.7 1.7 0 0 1-.582-.415 1.6 1.6 0 0 1-.395-.563 1.7 1.7 0 0 1-.14-.683q.001-.391.14-.709m4.098 4.405c-.13-.228-.255-.37-.39-.449-.084-.064-.243-.169-.374-.169-.174 0-.268.061-.39.188a.6.6 0 0 0-.109.338c0 .159.045.282.123.358.157.18.311.379.391.608.097.22.14.43.14.683 0 .237-.048.479-.14.71a1.54 1.54 0 0 1-.391.555 1.5 1.5 0 0 1-.556.395c-.479.191-.96.189-1.425.003a1.6 1.6 0 0 1-.582-.416 1.45 1.45 0 0 1-.366-.53 1.9 1.9 0 0 1-.144-.715c0-.254.043-.464.148-.7.058-.179.159-.358.323-.58a.45.45 0 0 0 .158-.37.46.46 0 0 0-.109-.312.42.42 0 0 0-.364-.188c-.132 0-.291.106-.394.186-.11.11-.248.248-.358.414a2.67 2.67 0 0 0-.481 1.521v.013q.041.634.252 1.14c.163.352.357.635.613.89.281.283.567.478.902.618.386.149.75.222 1.113.222.386 0 .748-.07 1.144-.223.316-.132.627-.345.898-.616a2.6 2.6 0 0 0 .589-.923c.149-.356.225-.723.225-1.092a3.2 3.2 0 0 0-.141-.921 2.8 2.8 0 0 0-.303-.635zm-2.424 5.235a1.175 1.175 0 1 0 0 2.35 1.175 1.175 0 0 0 0-2.35M51.744 0c-3.825 0-6.939 3.112-6.939 6.937s3.114 6.937 6.939 6.937 6.94-3.112 6.94-6.937S55.57 0 51.744 0m0 12.706a5.776 5.776 0 0 1-5.77-5.769c0-3.18 2.589-5.785 5.77-5.785s5.773 2.595 5.773 5.785-2.59 5.77-5.773 5.77"/><path fill="#e53a41" d="M6.122 19.944c-1.027-.594-1.577-1.785-1.577-2.17-.055-.74.241-2.47 3.109-2.205 0 0 2.757.287 3.937 2.966v-3.607c-2.106-1.695-5.282-1.695-5.282-1.695-3.33 0-6.351 2.226-6.309 5.134.056 2.58 1.083 4.21 3.156 5.756.761.605 1.71 1.234 2.813 1.806 1.633.982 2.227 2.05 2.227 3.154.034 1.533-1.28 3.516-4.114 3.516 0 0-2.866 0-4.024-3.008v3.824c2.074 1.553 5.25 1.553 5.25 1.553 3.814 0 7.651-2.998 7.542-7.089 0-1.443-.531-2.71-1.29-3.757-1.257-1.753-3.618-2.988-5.437-4.179zM31.33 30.35V18.844c0-4.342-3.066-5.54-5.75-5.54-3.198 0-4.8 2.475-5.293 3.664V5.46c0-4.647-2.422-4.734-3.62-4.734h-3.33c1.9.938 1.9 4.244 1.9 4.244v24.89c0 4.624 2.478 4.721 3.643 4.721h3.328c-1.921-.959-1.921-4.232-1.921-4.232V18.844c.927-2.008 2.979-2.008 2.979-2.008 1.671 0 3.023 1.386 3.023 2.969-.034 4.209-.034 10.057-.034 10.057 0 4.625 2.468 4.722 3.665 4.722h3.328c-1.92-.96-1.92-4.232-1.92-4.232zm65.545-.09V18c0-4.715-2.486-4.715-3.657-4.715h-3.34c1.927.84 1.927 4.202 1.927 4.202V30.02c.077 4.467 2.454 4.564 3.604 4.564h3.358c-1.892-.984-1.892-4.322-1.892-4.322zM93.39 12.135a2.52 2.52 0 0 0 2.52-2.518c0-1.375-1.111-2.465-2.52-2.465-1.408 0-2.575 1.088-2.575 2.465s1.124 2.518 2.575 2.518m-6.185 18.272V5.483c0-4.67-2.411-4.624-3.611-4.624h-3.328c1.92.807 1.92 4.112 1.92 4.112v10.001a3.4 3.4 0 0 0-1.194-1.01 5 5 0 0 0-1.285-.447 5.8 5.8 0 0 0-1.836-.075q-.617.072-1.214.245a7.4 7.4 0 0 0-1.15.44q-.561.27-1.07.627a8 8 0 0 0-.984.804 9 9 0 0 0-.883.971q-.424.539-.772 1.13a11 11 0 0 0-.65 1.276q-.299.693-.516 1.415a14 14 0 0 0-.37 1.543q-.151.825-.214 1.662-.051.672-.05 1.345c0 5.04 2.52 11.147 8.814 9.893l.024-.021c.26-.056 2.236-.566 3.457-2.727.133 1.146.524 2.182 1.43 2.54h5.566c-1.767-1.133-2.085-3.423-2.085-4.176zm-5.02-11.411V31.05c-.853.936-1.56 1.177-1.865 1.296-.546.132-1.038.208-1.484.185-3.613-.163-3.348-5.716-3.348-7.636q-.001-.72.005-1.439.007-.753.036-1.505.029-.75.095-1.5c.044-.476.103-.952.186-1.423.076-.434.173-.864.305-1.284.117-.37.26-.736.452-1.075.167-.296.373-.574.63-.8.241-.212.525-.37.835-.457a2.1 2.1 0 0 1 .864-.045 3.7 3.7 0 0 1 1.06.34c.325.162.624.372.893.618.344.316.631.69.865 1.094a6 6 0 0 1 .365.75l.055.138c.014.039.052.101.052.143v.546M49.041 30.392V18.718c0-2.809-3.102-5.468-6.355-5.468 0 0-3.177 0-5.171 1.922v3.767c1.404-3.252 3.991-3.252 3.991-3.252.845 0 1.81.145 2.424.785.15.157.272.34.36.537.227.51.24 1.095.23 1.642-.012.572-.132 1.125-.427 1.617-1.331 2.218-11.38 3.03-9.9 10.714.591 3.03 2.586 3.915 5.171 3.915s4.138-1.625 4.804-2.88c0 0 .502 2.425 1.684 2.572h5.468c-2.143-1.331-2.276-4.197-2.276-4.197zm-4.95.59c-.517.442-1.257 1.479-3.472 1.479-1.257 0-2.144-1.257-2.144-2.587 0-5.173 4.433-6.208 5.615-7.611zm23.239-.59V18.718c0-2.809-3.103-5.468-6.356-5.468 0 0-3.177 0-5.171 1.922v3.767c1.404-3.252 3.991-3.252 3.991-3.252.845 0 1.81.145 2.424.785.15.157.272.34.36.537.227.51.24 1.095.23 1.642-.012.572-.132 1.125-.427 1.617-1.331 2.218-11.38 3.03-9.9 10.714.591 3.03 2.586 3.915 5.171 3.915s4.14-1.625 4.804-2.88c0 0 .502 2.425 1.684 2.572h5.468c-2.143-1.331-2.276-4.197-2.276-4.197zm-4.951.59c-.517.442-1.257 1.479-3.472 1.479-1.257 0-2.143-1.257-2.143-2.587 0-5.173 4.432-6.208 5.615-7.611zM54.893 6.26c0-.745-.704-1.361-1.576-1.361-.793 0-1.184.34-1.573 1.02-.403-.679-.795-1.02-1.575-1.02-.87 0-1.573.616-1.573 1.36 0 1.36 1.573 2.719 3.15 4.067 1.572-1.35 3.148-2.707 3.148-4.067z"/></svg>